<svg width="175" height="175" viewBox="0 0 93 93" fill="none" xmlns="http://www.w3.org/2000/svg">
<path d="M5.24029 59.0036C4.35491 56.4289 5.52626 54.2705 8.19513 53.3528C10.8326 52.4458 13.173 53.4317 14.0098 55.8651C14.7278 57.9531 14.0456 60.2066 11.0471 61.2377L10.4191 61.4536L8.37299 55.5036C6.92891 56.0266 6.36753 57.1764 6.81562 58.4794C7.11794 59.3586 7.69987 59.8256 8.28863 59.904L8.96346 61.8664C7.36356 62.0128 5.92052 60.9817 5.24029 59.0036ZM9.74422 55.0497L11.1263 59.0687C12.2826 58.6535 12.8659 57.5927 12.4663 56.4309C12.0507 55.2221 10.8569 54.7372 9.74422 55.0497Z" fill="#1C5A41"/>
<path d="M12.9187 72.6327C11.1947 70.5684 11.63 68.0852 13.7197 66.34C15.835 64.5735 18.3751 64.6367 20.0672 66.6627C21.4718 68.3447 21.4697 70.3364 20.0746 71.6962L18.7763 70.1416C19.3325 69.4608 19.4378 68.551 18.7781 67.7609C17.9374 66.7543 16.5196 66.7919 15.1307 67.9518C13.7036 69.1437 13.4032 70.5193 14.2545 71.5387C14.8611 72.265 15.7285 72.449 16.5974 71.9613L17.8956 73.5159C16.3239 74.6122 14.3659 74.3656 12.9187 72.6327Z" fill="#1C5A41"/>
<path d="M24.9942 82.6792C22.7055 81.3977 22.1363 78.948 23.4989 76.5145C24.8696 74.0664 27.2555 73.2713 29.5442 74.5528C31.8474 75.8423 32.4021 78.2839 31.0314 80.7319C29.6688 83.1655 27.2974 83.9687 24.9942 82.6792ZM25.836 81.2097C27.0962 81.9154 28.3598 81.1197 29.1709 79.6712C29.9738 78.2371 29.9998 76.7295 28.7395 76.0239C27.4503 75.3021 26.1786 76.1122 25.3757 77.5462C24.5646 78.9948 24.5467 80.4879 25.836 81.2097Z" fill="#1C5A41"/>
<path d="M38.8618 82.0927L38.0946 87.3159L35.9922 87.0071L37.3022 78.0882L39.3061 78.3825L39.0841 79.8936L39.1991 79.9105C39.7569 78.9689 40.7519 78.4774 42.0824 78.6728C43.9385 78.9454 44.9754 80.3394 44.6454 82.4723L43.8106 88.1555L41.7246 87.8491L42.5111 82.4944C42.6872 81.2954 42.1504 80.495 41.0499 80.3333C39.9329 80.1693 39.0524 80.795 38.8618 82.0927Z" fill="#1C5A41"/>
<path d="M52.6051 82.267L53.7508 87.4205L51.6764 87.8817L49.7201 79.0818L51.6973 78.6423L52.0287 80.1333L52.1422 80.108C52.3275 79.0294 53.082 78.2154 54.3947 77.9236C56.2259 77.5165 57.6918 78.4492 58.1439 80.5595L59.3904 86.1668L57.3323 86.6243L56.1578 81.3412C55.8948 80.1582 55.1079 79.6018 54.0221 79.8432C52.9201 80.0882 52.3205 80.9868 52.6051 82.267Z" fill="#1C5A41"/>
<path d="M70.0819 81.0549C67.8095 82.5545 65.4271 81.9586 63.8726 79.6031C62.3363 77.2753 62.7072 74.7629 64.8549 73.3456C66.6978 72.1294 69.0502 72.2278 70.7968 74.8744L71.1626 75.4286L65.9111 78.8943C66.7777 80.1623 68.0312 80.4191 69.1813 79.6601C69.9572 79.148 70.2643 78.468 70.1934 77.8783L71.9254 76.7353C72.4663 78.2481 71.8277 79.9027 70.0819 81.0549ZM65.1294 77.6797L68.6766 75.3387C67.986 74.3225 66.8133 74.0224 65.7879 74.699C64.721 75.4032 64.5493 76.6801 65.1294 77.6797Z" fill="#1C5A41"/>
<path d="M81.3645 70.2195C79.7955 72.4039 77.2823 72.6018 75.071 71.0135C72.8326 69.4058 72.2602 66.9302 73.8001 64.7862C75.0785 63.0064 77.0078 62.5116 78.6725 63.5234L77.491 65.1684C76.693 64.7996 75.7856 64.9246 75.1851 65.7606C74.42 66.8258 74.8101 68.1894 76.2799 69.245C77.79 70.3298 79.1971 70.2775 79.9719 69.1988C80.5239 68.4302 80.4857 67.5443 79.7967 66.8245L80.9783 65.1795C82.4321 66.4281 82.6817 68.3857 81.3645 70.2195Z" fill="#1C5A41"/>
<path d="M79.4473 52.8911L81.0041 53.3638L80.488 55.0635L84.9677 56.4236C85.7938 56.6744 86.0939 56.3144 86.2483 55.806C86.3206 55.5678 86.4253 55.1658 86.4866 54.9068L88.1387 55.4084C88.114 55.6611 88.0252 56.0679 87.8709 56.5763C87.4079 58.1013 86.3044 59.0501 84.6888 58.5423L79.8755 57.081L79.4993 58.3201L77.9425 57.8474L78.3187 56.6084L76.2536 55.9814L76.8661 53.9639L78.9312 54.5909L79.4473 52.8911Z" fill="#1C5A41"/>
<path d="M87.0927 33.267C87.9781 35.8417 86.8067 38.0001 84.1379 38.9179C81.5004 39.8248 79.16 38.839 78.3232 36.4056C77.6052 34.3176 78.2874 32.0641 81.286 31.0329L81.9139 30.817L83.96 36.767C85.4041 36.2441 85.9655 35.0942 85.5174 33.7912C85.2151 32.912 84.6331 32.445 84.0444 32.3666L83.3695 30.4042C84.9694 30.2578 86.4125 31.2889 87.0927 33.267ZM82.5888 37.221L81.2067 33.202C80.0504 33.6172 79.4672 34.678 79.8667 35.8397C80.2824 37.0485 81.4761 37.5334 82.5888 37.221Z" fill="#1C5A41"/>
<path d="M79.4144 19.638C81.1383 21.7023 80.703 24.1854 78.6133 25.9306C76.498 27.6971 73.9579 27.6339 72.2659 25.6079C70.8612 23.9259 70.8633 21.9342 72.2584 20.5744L73.5567 22.129C73.0005 22.8098 72.8952 23.7197 73.5549 24.5097C74.3956 25.5164 75.8134 25.4787 77.2023 24.3188C78.6294 23.1269 78.9298 21.7514 78.0785 20.732C77.4719 20.0056 76.6045 19.8216 75.7356 20.3093L74.4374 18.7547C76.0092 17.6584 77.9671 17.905 79.4144 19.638Z" fill="#1C5A41"/>
<path d="M67.3388 9.59148C69.6275 10.8729 70.1967 13.3226 68.8341 15.7562C67.4634 18.2042 65.0775 18.9993 62.7888 17.7179C60.4856 16.4283 59.9309 13.9867 61.3016 11.5387C62.6642 9.10512 65.0356 8.3019 67.3388 9.59148ZM66.4971 11.0609C65.2368 10.3553 63.9732 11.1509 63.1621 12.5994C62.3592 14.0335 62.3332 15.5411 63.5935 16.2467C64.8827 16.9686 66.1544 16.1585 66.9574 14.7244C67.7684 13.2758 67.7863 11.7827 66.4971 11.0609Z" fill="#1C5A41"/>
<path d="M53.4712 10.178L54.2384 4.95472L56.3408 5.26352L55.0308 14.1825L53.027 13.8882L53.2489 12.377L53.1339 12.3601C52.5761 13.3018 51.5811 13.7932 50.2506 13.5978C48.3945 13.3252 47.3576 11.9312 47.6876 9.79834L48.5224 4.11518L50.6084 4.42156L49.8219 9.77622C49.6458 10.9753 50.1827 11.7756 51.2831 11.9373C52.4001 12.1013 53.2806 11.4756 53.4712 10.178Z" fill="#1C5A41"/>
<path d="M39.7279 10.0037L38.5822 4.85016L40.6566 4.38902L42.6129 13.1888L40.6357 13.6284L40.3043 12.1374L40.1908 12.1626C40.0055 13.2413 39.251 14.0552 37.9384 14.3471C36.1071 14.7542 34.6412 13.8215 34.1891 11.7112L32.9426 6.1039L35.0007 5.64636L36.1752 10.9295C36.4382 12.1125 37.2251 12.6689 38.3109 12.4275C39.4129 12.1825 40.0125 11.2839 39.7279 10.0037Z" fill="#1C5A41"/>
<path d="M22.2511 11.2158C24.5236 9.71609 26.9059 10.312 28.4604 12.6675C29.9967 14.9954 29.6258 17.5077 27.4781 18.9251C25.6352 20.1413 23.2828 20.0428 21.5362 17.3962L21.1704 16.842L26.4219 13.3763C25.5553 12.1083 24.3018 11.8515 23.1517 12.6105C22.3758 13.1226 22.0687 13.8026 22.1396 14.3923L20.4076 15.5354C19.8667 14.0226 20.5053 12.3679 22.2511 11.2158ZM27.2036 14.5909L23.6565 16.9319C24.347 17.9481 25.5197 18.2483 26.5451 17.5716C27.612 16.8675 27.7837 15.5905 27.2036 14.5909Z" fill="#1C5A41"/>
<path d="M10.9685 22.0511C12.5375 19.8668 15.0507 19.6688 17.2621 21.2571C19.5004 22.8648 20.0728 25.3405 18.5329 27.4844C17.2545 29.2643 15.3252 29.759 13.6605 28.7472L14.842 27.1022C15.64 27.471 16.5474 27.346 17.1479 26.51C17.913 25.4448 17.5229 24.0813 16.0531 23.0256C14.543 21.9409 13.1359 21.9931 12.3611 23.0719C11.8091 23.8404 11.8473 24.7264 12.5363 25.4461L11.3547 27.0911C9.90094 25.8425 9.65134 23.8849 10.9685 22.0511Z" fill="#1C5A41"/>
<path d="M12.8857 39.3795L11.329 38.9069L11.845 37.2071L7.36526 35.8471C6.53921 35.5963 6.23907 35.9563 6.08474 36.4646C6.0124 36.7029 5.90771 37.1048 5.84643 37.3638L4.19433 36.8623C4.21902 36.6095 4.30782 36.2027 4.46215 35.6944C4.92514 34.1694 6.02865 33.2205 7.64416 33.7283L12.4575 35.1896L12.8337 33.9506L14.3905 34.4232L14.0143 35.6623L16.0794 36.2892L15.4669 38.3067L13.4018 37.6797L12.8857 39.3795Z" fill="#1C5A41"/>
<circle cx="7.5" cy="46" r="2.5" fill="#1C5A41"/>
<circle cx="83.5" cy="46" r="2.5" fill="#1C5A41"/>
</svg>
