<svg width="22" height="21" viewBox="0 0 22 21" fill="none" xmlns="http://www.w3.org/2000/svg">
<path d="M10.3955 1.79169C10.542 1.64538 10.7406 1.56321 10.9476 1.56321C11.1546 1.56321 11.3532 1.64538 11.4997 1.79169L20.5518 10.8438C20.6239 10.9184 20.7101 10.9778 20.8055 11.0187C20.9008 11.0596 21.0033 11.0811 21.107 11.082C21.2108 11.0828 21.3136 11.063 21.4096 11.0237C21.5056 10.9844 21.5928 10.9263 21.6662 10.8529C21.7395 10.7795 21.7974 10.6923 21.8367 10.5963C21.8759 10.5002 21.8956 10.3973 21.8947 10.2936C21.8937 10.1899 21.8721 10.0874 21.8311 9.99207C21.7902 9.89677 21.7306 9.81059 21.6559 9.73856L12.6049 0.686479C12.3873 0.468838 12.1289 0.296196 11.8445 0.17841C11.5602 0.0606239 11.2554 0 10.9476 0C10.6398 0 10.3351 0.0606239 10.0507 0.17841C9.76633 0.296196 9.50796 0.468838 9.29032 0.686479L0.238238 9.73856C0.163655 9.81067 0.104179 9.8969 0.0632804 9.99223C0.0223815 10.0876 0.000878539 10.1901 2.63629e-05 10.2938C-0.000825813 10.3976 0.0189898 10.5004 0.058317 10.5964C0.0976442 10.6924 0.155695 10.7796 0.229083 10.8529C0.302471 10.9263 0.389726 10.9842 0.485757 11.0235C0.581788 11.0627 0.684671 11.0824 0.788404 11.0815C0.892137 11.0805 0.994642 11.0589 1.08994 11.0179C1.18523 10.9769 1.27141 10.9174 1.34345 10.8427L10.3955 1.79169Z" fill="#1C5A41"/>
<path d="M10.9475 3.44897L19.4465 11.9479C19.4777 11.9792 19.509 12.0083 19.5413 12.0375V18.4938C19.5413 19.5719 18.6663 20.4469 17.5881 20.4469H14.0725C13.8653 20.4469 13.6666 20.3646 13.5201 20.2181C13.3736 20.0716 13.2913 19.8728 13.2913 19.6656V14.9781C13.2913 14.7709 13.2089 14.5722 13.0624 14.4257C12.9159 14.2792 12.7172 14.1969 12.51 14.1969H9.38501C9.17781 14.1969 8.9791 14.2792 8.83258 14.4257C8.68607 14.5722 8.60376 14.7709 8.60376 14.9781V19.6656C8.60376 19.8728 8.52145 20.0716 8.37494 20.2181C8.22842 20.3646 8.02971 20.4469 7.82251 20.4469H4.30688C3.78888 20.4469 3.2921 20.2411 2.92582 19.8748C2.55953 19.5086 2.35376 19.0118 2.35376 18.4938V12.0375C2.38617 12.0085 2.41778 11.9787 2.44855 11.9479L10.9475 3.44897Z" fill="#1C5A41"/>
</svg>
