<svg width="33" height="33" viewBox="0 0 33 33" fill="none" xmlns="http://www.w3.org/2000/svg">
<g filter="url(#filter0_d_274_2732)">
<circle cx="16.5" cy="16.5" r="11.5" fill="#F8F8F8"/>
</g>
<g clip-path="url(#clip0_274_2732)">
<path d="M23.125 20.5C23.125 20.7321 23.0328 20.9546 22.8687 21.1187C22.7046 21.2828 22.4821 21.375 22.25 21.375H11.75C11.5179 21.375 11.2954 21.2828 11.1313 21.1187C10.9672 20.9546 10.875 20.7321 10.875 20.5V15.25C10.875 15.0179 10.9672 14.7954 11.1313 14.6313C11.2954 14.4672 11.5179 14.375 11.75 14.375H12.7755C13.4713 14.3746 14.1385 14.098 14.6305 13.6059L15.3568 12.8814C15.5204 12.7177 15.7422 12.6255 15.9736 12.625H18.0246C18.2567 12.625 18.4792 12.7173 18.6433 12.8814L19.3678 13.6059C19.6116 13.8498 19.901 14.0432 20.2196 14.1752C20.5382 14.3071 20.8797 14.375 21.2245 14.375H22.25C22.4821 14.375 22.7046 14.4672 22.8687 14.6313C23.0328 14.7954 23.125 15.0179 23.125 15.25V20.5ZM11.75 13.5C11.2859 13.5 10.8408 13.6844 10.5126 14.0126C10.1844 14.3408 10 14.7859 10 15.25V20.5C10 20.9641 10.1844 21.4092 10.5126 21.7374C10.8408 22.0656 11.2859 22.25 11.75 22.25H22.25C22.7141 22.25 23.1592 22.0656 23.4874 21.7374C23.8156 21.4092 24 20.9641 24 20.5V15.25C24 14.7859 23.8156 14.3408 23.4874 14.0126C23.1592 13.6844 22.7141 13.5 22.25 13.5H21.2245C20.7604 13.4999 20.3154 13.3155 19.9872 12.9873L19.2628 12.2627C18.9346 11.9345 18.4896 11.7501 18.0255 11.75H15.9745C15.5104 11.7501 15.0654 11.9345 14.7372 12.2627L14.0128 12.9873C13.6846 13.3155 13.2396 13.4999 12.7755 13.5H11.75Z" fill="black"/>
<path d="M17 19.625C16.4198 19.625 15.8634 19.3945 15.4532 18.9843C15.043 18.5741 14.8125 18.0177 14.8125 17.4375C14.8125 16.8573 15.043 16.3009 15.4532 15.8907C15.8634 15.4805 16.4198 15.25 17 15.25C17.5802 15.25 18.1366 15.4805 18.5468 15.8907C18.957 16.3009 19.1875 16.8573 19.1875 17.4375C19.1875 18.0177 18.957 18.5741 18.5468 18.9843C18.1366 19.3945 17.5802 19.625 17 19.625ZM17 20.5C17.8122 20.5 18.5912 20.1773 19.1655 19.603C19.7398 19.0287 20.0625 18.2497 20.0625 17.4375C20.0625 16.6253 19.7398 15.8463 19.1655 15.272C18.5912 14.6977 17.8122 14.375 17 14.375C16.1878 14.375 15.4088 14.6977 14.8345 15.272C14.2602 15.8463 13.9375 16.6253 13.9375 17.4375C13.9375 18.2497 14.2602 19.0287 14.8345 19.603C15.4088 20.1773 16.1878 20.5 17 20.5ZM12.625 15.6875C12.625 15.8035 12.5789 15.9148 12.4969 15.9969C12.4148 16.0789 12.3035 16.125 12.1875 16.125C12.0715 16.125 11.9602 16.0789 11.8781 15.9969C11.7961 15.9148 11.75 15.8035 11.75 15.6875C11.75 15.5715 11.7961 15.4602 11.8781 15.3781C11.9602 15.2961 12.0715 15.25 12.1875 15.25C12.3035 15.25 12.4148 15.2961 12.4969 15.3781C12.5789 15.4602 12.625 15.5715 12.625 15.6875Z" fill="black"/>
</g>
<defs>
<filter id="filter0_d_274_2732" x="0" y="0" width="33" height="33" filterUnits="userSpaceOnUse" color-interpolation-filters="sRGB">
<feFlood flood-opacity="0" result="BackgroundImageFix"/>
<feColorMatrix in="SourceAlpha" type="matrix" values="0 0 0 0 0 0 0 0 0 0 0 0 0 0 0 0 0 0 127 0" result="hardAlpha"/>
<feOffset/>
<feGaussianBlur stdDeviation="2.5"/>
<feComposite in2="hardAlpha" operator="out"/>
<feColorMatrix type="matrix" values="0 0 0 0 0 0 0 0 0 0 0 0 0 0 0 0 0 0 0.25 0"/>
<feBlend mode="normal" in2="BackgroundImageFix" result="effect1_dropShadow_274_2732"/>
<feBlend mode="normal" in="SourceGraphic" in2="effect1_dropShadow_274_2732" result="shape"/>
</filter>
<clipPath id="clip0_274_2732">
<rect width="14" height="14" fill="white" transform="translate(10 10)"/>
</clipPath>
</defs>
</svg>
