<svg width="50" height="50" viewBox="0 0 50 50" fill="none" xmlns="http://www.w3.org/2000/svg">
<path d="M38.2812 43.7501C36.0551 43.7983 33.9006 42.9622 32.2898 41.4249C30.679 39.8876 29.7432 37.7745 29.6875 35.5485C29.7217 33.9761 30.1947 32.4445 31.0531 31.1266L36.7031 22.7157C36.8771 22.4569 37.112 22.2449 37.3872 22.0983C37.6624 21.9517 37.9694 21.875 38.2812 21.875C38.5931 21.875 38.9001 21.9517 39.1753 22.0983C39.4505 22.2449 39.6854 22.4569 39.8594 22.7157L45.4062 30.961C46.3231 32.3189 46.8327 33.9106 46.875 35.5485C46.8193 37.7745 45.8835 39.8876 44.2727 41.4249C42.6619 42.9622 40.5074 43.7983 38.2812 43.7501ZM38.2812 25.9688L33.6937 32.7922C33.1476 33.6103 32.8423 34.5653 32.8125 35.5485C32.9168 36.9275 33.5382 38.2162 34.5523 39.1564C35.5664 40.0967 36.8983 40.6192 38.2812 40.6192C39.6642 40.6192 40.9961 40.0967 42.0102 39.1564C43.0243 38.2162 43.6457 36.9275 43.75 35.5485C43.7133 34.5009 43.3712 33.4869 42.7656 32.6313L38.2812 25.9688Z" fill="#A08864"/>
<path d="M7.8125 21.875C8.67545 21.875 9.375 21.1754 9.375 20.3125C9.375 19.4496 8.67545 18.75 7.8125 18.75C6.94956 18.75 6.25 19.4496 6.25 20.3125C6.25 21.1754 6.94956 21.875 7.8125 21.875Z" fill="#A08864"/>
<path d="M17.1875 31.25C18.0504 31.25 18.75 30.5504 18.75 29.6875C18.75 28.8246 18.0504 28.125 17.1875 28.125C16.3246 28.125 15.625 28.8246 15.625 29.6875C15.625 30.5504 16.3246 31.25 17.1875 31.25Z" fill="#A08864"/>
<path d="M23.4375 40.625C24.3004 40.625 25 39.9254 25 39.0625C25 38.1996 24.3004 37.5 23.4375 37.5C22.5746 37.5 21.875 38.1996 21.875 39.0625C21.875 39.9254 22.5746 40.625 23.4375 40.625Z" fill="#A08864"/>
<path d="M26.5625 25C27.4254 25 28.125 24.3004 28.125 23.4375C28.125 22.5746 27.4254 21.875 26.5625 21.875C25.6996 21.875 25 22.5746 25 23.4375C25 24.3004 25.6996 25 26.5625 25Z" fill="#A08864"/>
<path d="M20.3125 18.75C21.1754 18.75 21.875 18.0504 21.875 17.1875C21.875 16.3246 21.1754 15.625 20.3125 15.625C19.4496 15.625 18.75 16.3246 18.75 17.1875C18.75 18.0504 19.4496 18.75 20.3125 18.75Z" fill="#A08864"/>
<path d="M42.1875 18.75C43.0504 18.75 43.75 18.0504 43.75 17.1875C43.75 16.3246 43.0504 15.625 42.1875 15.625C41.3246 15.625 40.625 16.3246 40.625 17.1875C40.625 18.0504 41.3246 18.75 42.1875 18.75Z" fill="#A08864"/>
<path d="M14.0625 43.75C14.9254 43.75 15.625 43.0504 15.625 42.1875C15.625 41.3246 14.9254 40.625 14.0625 40.625C13.1996 40.625 12.5 41.3246 12.5 42.1875C12.5 43.0504 13.1996 43.75 14.0625 43.75Z" fill="#A08864"/>
<path d="M4.6875 34.375C5.55045 34.375 6.25 33.6754 6.25 32.8125C6.25 31.9496 5.55045 31.25 4.6875 31.25C3.82456 31.25 3.125 31.9496 3.125 32.8125C3.125 33.6754 3.82456 34.375 4.6875 34.375Z" fill="#A08864"/>
<path d="M3.125 9.375H46.875V12.5H3.125V9.375Z" fill="#A08864"/>
</svg>
