<svg width="285" height="285" viewBox="0 0 285 285" fill="none" xmlns="http://www.w3.org/2000/svg">
<rect x="0.75" y="0.75" width="283.5" height="283.5" rx="19.25" fill="#EBEEDF"/>
<rect x="0.75" y="0.75" width="283.5" height="283.5" rx="19.25" fill="black" fill-opacity="0.4"/>
<rect x="0.75" y="0.75" width="283.5" height="283.5" rx="19.25" stroke="#72BA9B" stroke-width="1.5"/>
<path d="M113 148V154.667C113 155.551 112.649 156.399 112.024 157.024C111.399 157.649 110.551 158 109.667 158H86.3333C85.4493 158 84.6014 157.649 83.9763 157.024C83.3512 156.399 83 155.551 83 154.667V148M106.333 136.333L98 128M98 128L89.6667 136.333M98 128V148" stroke="#EBEEDF" stroke-width="3" stroke-linecap="round" stroke-linejoin="round"/>
<path d="M135.042 138.438C135.027 140.984 136.12 143.562 138.402 144.656L137.198 146.25C135.675 145.5 134.652 144.094 134.058 142.375C133.441 144.219 132.339 145.727 130.73 146.516L129.495 144.906C131.902 143.797 133.042 141.078 133.042 138.438V136.312H135.042V138.438ZM141.027 135.219V140.703H143.12V142.391H141.027V149.438H139.027V135.219H141.027ZM148.863 138.031C148.863 139.734 149.91 141.469 152.253 142.172L151.238 143.734C149.644 143.234 148.519 142.211 147.878 140.922C147.23 142.32 146.074 143.445 144.41 144L143.378 142.438C145.738 141.672 146.832 139.828 146.832 138.031V137.828H143.91V136.234H151.722V137.828H148.863V138.031ZM155.222 135.234V145.516H153.222V135.234H155.222ZM155.597 147.594V149.188H145.691V144.578H147.707V147.594H155.597ZM164.16 135.828C165.981 135.812 167.426 136.852 167.817 138.375H170.192V135.219H172.176V142.859H170.192V139.969H167.832C167.457 141.531 165.996 142.594 164.16 142.594C161.973 142.594 160.363 141.172 160.379 139.188C160.363 137.234 161.973 135.812 164.16 135.828ZM164.16 137.484C163.051 137.469 162.254 138.125 162.27 139.188C162.254 140.25 163.051 140.922 164.16 140.922C165.238 140.922 166.02 140.25 166.02 139.188C166.02 138.125 165.238 137.469 164.16 137.484ZM164.66 143.484V144.859H170.192V143.484H172.176V149.281H162.692V143.484H164.66ZM164.66 147.672H170.192V146.391H164.66V147.672ZM186.715 146.219V147.859H173.7V146.219H179.184V144.078H175.2V139.297H183.247V137.734H175.184V136.141H185.215V140.859H177.2V142.453H185.543V144.078H181.168V146.219H186.715ZM198.802 141.797V143.391H188.739V136.406H198.692V138.016H190.708V141.797H198.802ZM200.223 146.062V147.703H187.208V146.062H200.223Z" fill="#EBEEDF"/>
</svg>
