<svg width="27" height="21" viewBox="0 0 27 21" fill="none" xmlns="http://www.w3.org/2000/svg">
<path d="M17.7188 10.9688C17.7188 12.0876 17.2743 13.1607 16.4831 13.9519C15.6919 14.743 14.6189 15.1875 13.5 15.1875C12.3811 15.1875 11.3081 14.743 10.5169 13.9519C9.72572 13.1607 9.28125 12.0876 9.28125 10.9688C9.28125 9.84987 9.72572 8.77681 10.5169 7.98564C11.3081 7.19447 12.3811 6.75 13.5 6.75C14.6189 6.75 15.6919 7.19447 16.4831 7.98564C17.2743 8.77681 17.7188 9.84987 17.7188 10.9688Z" fill="#5AAF76"/>
<path d="M3.375 3.375C2.47989 3.375 1.62145 3.73058 0.988515 4.36351C0.355579 4.99645 0 5.85489 0 6.75L0 16.875C0 17.7701 0.355579 18.6285 0.988515 19.2615C1.62145 19.8944 2.47989 20.25 3.375 20.25H23.625C24.5201 20.25 25.3785 19.8944 26.0115 19.2615C26.6444 18.6285 27 17.7701 27 16.875V6.75C27 5.85489 26.6444 4.99645 26.0115 4.36351C25.3785 3.73058 24.5201 3.375 23.625 3.375H21.6472C20.7522 3.37481 19.8939 3.0191 19.2611 2.38613L17.8639 0.988875C17.2311 0.355896 16.3728 0.000191151 15.4777 0H11.5223C10.6272 0.000191151 9.76891 0.355896 9.13612 0.988875L7.73887 2.38613C7.10609 3.0191 6.24778 3.37481 5.35275 3.375H3.375ZM4.21875 6.75C3.99497 6.75 3.78036 6.66111 3.62213 6.50287C3.4639 6.34464 3.375 6.13003 3.375 5.90625C3.375 5.68247 3.4639 5.46786 3.62213 5.30963C3.78036 5.15139 3.99497 5.0625 4.21875 5.0625C4.44253 5.0625 4.65714 5.15139 4.81537 5.30963C4.97361 5.46786 5.0625 5.68247 5.0625 5.90625C5.0625 6.13003 4.97361 6.34464 4.81537 6.50287C4.65714 6.66111 4.44253 6.75 4.21875 6.75ZM19.4062 10.9688C19.4062 12.5352 18.784 14.0375 17.6763 15.1451C16.5687 16.2527 15.0664 16.875 13.5 16.875C11.9336 16.875 10.4313 16.2527 9.32365 15.1451C8.21601 14.0375 7.59375 12.5352 7.59375 10.9688C7.59375 9.40232 8.21601 7.90004 9.32365 6.7924C10.4313 5.68476 11.9336 5.0625 13.5 5.0625C15.0664 5.0625 16.5687 5.68476 17.6763 6.7924C18.784 7.90004 19.4062 9.40232 19.4062 10.9688Z" fill="#5AAF76"/>
</svg>
