<svg width="22" height="22" viewBox="0 0 22 22" fill="none" xmlns="http://www.w3.org/2000/svg">
<path d="M16 10.939C16 11.3208 15.854 11.6465 15.5508 11.9385L6.79102 20.5073C6.55518 20.7544 6.24072 20.8779 5.88135 20.8779C5.15137 20.8779 4.57861 20.3164 4.57861 19.5752C4.57861 19.2158 4.72461 18.8901 4.97168 18.6431L12.8667 10.939L4.97168 3.23486C4.72461 2.97656 4.57861 2.65088 4.57861 2.2915C4.57861 1.56152 5.15137 1 5.88135 1C6.24072 1 6.55518 1.12354 6.79102 1.37061L15.5508 9.93945C15.854 10.2314 15.9888 10.5571 16 10.939Z" fill="#62B46A"/>
</svg>
