<svg width="25" height="28" viewBox="0 0 25 28" fill="none" xmlns="http://www.w3.org/2000/svg">
<path d="M22.2222 24.75V9.625H2.77778V24.75H22.2222ZM18.0556 0H20.8333V2.75H22.2222C22.9589 2.75 23.6655 3.03973 24.1864 3.55546C24.7073 4.07118 25 4.77065 25 5.5V24.75C25 26.2763 23.7639 27.5 22.2222 27.5H2.77778C2.04107 27.5 1.33453 27.2103 0.813592 26.6945C0.292658 26.1788 0 25.4793 0 24.75V5.5C0 3.9875 1.25 2.75 2.77778 2.75H4.16667V0H6.94444V2.75H18.0556V0ZM12.5 22.2337L11.6944 21.505C8.83333 18.9337 6.94444 17.2425 6.94444 15.1662C6.94444 13.475 8.29167 12.1412 10 12.1412C10.9722 12.1412 11.8889 12.5813 12.5 13.2825C13.1111 12.5813 14.0278 12.1412 15 12.1412C16.7083 12.1412 18.0556 13.475 18.0556 15.1662C18.0556 17.2425 16.1667 18.9337 13.3056 21.505L12.5 22.2337Z" fill="#01110A" fill-opacity="0.7"/>
</svg>
