<svg width="24" height="24" viewBox="0 0 24 24" fill="none" xmlns="http://www.w3.org/2000/svg">
<path d="M11.7467 0.50001L11.746 0.500011C5.54114 0.500011 0.5 5.54115 0.5 11.746C0.5 17.9509 5.54114 22.992 11.746 22.992C17.9518 22.992 22.992 17.9509 22.992 11.746C22.992 10.3746 22.7459 9.06066 22.297 7.84407L21.9511 8.18999C22.3404 9.30384 22.551 10.4994 22.551 11.7456C22.551 11.7458 22.551 11.7459 22.551 11.746H22.051C22.0521 13.0996 21.7862 14.4401 21.2687 15.6908C20.7512 16.9415 19.9922 18.078 19.0351 19.0351C18.078 19.9922 16.9415 20.7512 15.6908 21.2687C14.4401 21.7862 13.0996 22.0521 11.746 22.051L11.7467 0.50001ZM11.7467 0.50001C13.6958 0.497362 15.6118 1.00348 17.3053 1.96819L16.9814 2.29172M11.7467 0.50001L16.9814 2.29172M16.9814 2.29172C15.4296 1.43194 13.6467 0.941038 11.7462 0.941011C11.7462 0.941011 11.7463 0.941011 11.7464 0.941011L16.9814 2.29172ZM8.69649 14.8606L9.05005 15.2141L9.40355 14.8606L22.9698 1.29429L23.2931 1.61784L9.04904 15.8619L5.00424 11.8162L5.32788 11.4929L8.69649 14.8606Z" fill="#1C5A41" stroke="#1C5A41"/>
</svg>
