<svg width="25" height="25" viewBox="0 0 25 25" fill="none" xmlns="http://www.w3.org/2000/svg">
<path fill-rule="evenodd" clip-rule="evenodd" d="M18.6196 17.2724L20.5133 10.0649L17.7458 11.8274C17.194 12.1793 16.5262 12.3007 15.8858 12.1656C15.2454 12.0305 14.6835 11.6497 14.3208 11.1049L12.4996 8.36869L10.6771 11.1062C10.3142 11.6508 9.75221 12.0313 9.11185 12.1662C8.47148 12.301 7.80377 12.1794 7.25207 11.8274L4.48707 10.0649L6.38082 17.2724H18.6196ZM5.15707 9.00994C4.19832 8.39869 2.98707 9.28244 3.27582 10.3824L5.17082 17.5899C5.24097 17.8571 5.39762 18.0934 5.6163 18.2622C5.83498 18.4309 6.10338 18.5224 6.37957 18.5224H18.6196C18.8958 18.5224 19.1642 18.4309 19.3828 18.2622C19.6015 18.0934 19.7582 17.8571 19.8283 17.5899L21.7233 10.3824C22.0108 9.28244 20.8008 8.39994 19.8421 9.00994L17.0746 10.7724C16.7988 10.9485 16.465 11.0094 16.1448 10.9421C15.8246 10.8748 15.5436 10.6846 15.3621 10.4124L13.5396 7.67494C13.4254 7.50374 13.2708 7.36337 13.0893 7.26629C12.9079 7.1692 12.7053 7.11841 12.4996 7.11841C12.2938 7.11841 12.0912 7.1692 11.9098 7.26629C11.7284 7.36337 11.5737 7.50374 11.4596 7.67494L9.63707 10.4124C9.45572 10.6848 9.17478 10.8752 8.85459 10.9428C8.5344 11.0103 8.2005 10.9496 7.92457 10.7737L5.15707 9.00994Z" fill="#FAD588"/>
<path d="M13.6798 4.93122C13.6801 5.24451 13.556 5.5451 13.3347 5.76686C13.1134 5.98862 12.8131 6.11339 12.4998 6.11372C12.1865 6.11405 11.8859 5.98992 11.6641 5.76863C11.4424 5.54733 11.3176 5.24701 11.3173 4.93372C11.317 4.62043 11.4411 4.31985 11.6624 4.09809C11.8837 3.87632 12.184 3.75155 12.4973 3.75122C12.8106 3.75089 13.1112 3.87502 13.3329 4.09632C13.5547 4.31761 13.6795 4.61793 13.6798 4.93122ZM23.1248 7.29497C23.125 7.60826 23.0007 7.90878 22.7792 8.13042C22.5578 8.35207 22.2574 8.47668 21.9442 8.47685C21.6309 8.47701 21.3304 8.35272 21.1087 8.13131C20.8871 7.9099 20.7625 7.60951 20.7623 7.29622C20.7623 6.98293 20.8867 6.68248 21.1083 6.46095C21.3298 6.23942 21.6302 6.11497 21.9435 6.11497C22.2568 6.11497 22.5573 6.23942 22.7788 6.46095C23.0003 6.68248 23.1248 6.98168 23.1248 7.29497ZM4.23604 7.29497C4.23612 7.4501 4.20564 7.60372 4.14636 7.74706C4.08707 7.89041 4.00013 8.02068 3.8905 8.13042C3.78087 8.24017 3.65069 8.32725 3.50741 8.38669C3.36412 8.44613 3.21053 8.47676 3.05541 8.47685C2.90029 8.47693 2.74667 8.44646 2.60332 8.38717C2.45997 8.32788 2.3297 8.24094 2.21996 8.13131C2.11021 8.02168 2.02313 7.8915 1.96369 7.74822C1.90425 7.60493 1.87362 7.45135 1.87354 7.29622C1.87354 6.98293 1.99799 6.68248 2.21952 6.46095C2.44104 6.23942 2.7415 6.11497 3.05479 6.11497C3.36807 6.11497 3.66853 6.23942 3.89006 6.46095C4.11158 6.68248 4.23604 6.98168 4.23604 7.29497Z" fill="#FAD588"/>
<path fill-rule="evenodd" clip-rule="evenodd" d="M6.5625 20C6.5625 19.8342 6.62835 19.6753 6.74556 19.5581C6.86277 19.4408 7.02174 19.375 7.1875 19.375H18.1087C18.2745 19.375 18.4335 19.4408 18.5507 19.5581C18.6679 19.6753 18.7337 19.8342 18.7337 20C18.7337 20.1658 18.6679 20.3247 18.5507 20.4419C18.4335 20.5592 18.2745 20.625 18.1087 20.625H7.1875C7.02174 20.625 6.86277 20.5592 6.74556 20.4419C6.62835 20.3247 6.5625 20.1658 6.5625 20Z" fill="#FAD588"/>
</svg>
