<svg width="18" height="20" viewBox="0 0 18 20" fill="none" xmlns="http://www.w3.org/2000/svg">
<path d="M17.001 4.00049C17.2559 4.00078 17.5011 4.09838 17.6864 4.27337C17.8718 4.44836 17.9833 4.68753 17.9983 4.942C18.0132 5.19648 17.9304 5.44705 17.7668 5.64253C17.6032 5.838 17.3711 5.96363 17.118 5.99374L17.001 6.00074H16.92L16.0009 17.0021C16.0009 17.7674 15.7085 18.5038 15.1835 19.0606C14.6585 19.6174 13.9405 19.9526 13.1765 19.9975L13.0005 20.0025H4.99951C3.40131 20.0025 2.09515 18.7533 2.00714 17.2521L2.00214 17.0851L1.07902 6.00074H0.999015C0.744104 6.00046 0.498921 5.90285 0.313562 5.72786C0.128204 5.55287 0.0166592 5.3137 0.00172025 5.05923C-0.0132187 4.80475 0.0695753 4.55418 0.233186 4.3587C0.396796 4.16323 0.628874 4.0376 0.882001 4.00749L0.999015 4.00049H17.001ZM7.51082 9.14113C7.30127 9.01639 7.05337 8.97251 6.81374 9.01774C6.57411 9.06297 6.35926 9.1942 6.20961 9.38674C6.05995 9.57928 5.9858 9.81986 6.00109 10.0632C6.01639 10.3066 6.12008 10.536 6.29267 10.7083L7.58483 12.0015L6.29267 13.2946L6.20966 13.3886C6.05423 13.5897 5.98114 13.8423 6.00523 14.0953C6.02933 14.3482 6.14881 14.5825 6.33939 14.7506C6.52998 14.9186 6.77739 15.0078 7.03137 15.0001C7.28536 14.9923 7.52686 14.8882 7.70684 14.7088L9 13.4167L10.2932 14.7088L10.3872 14.7918C10.5882 14.9473 10.8408 15.0203 11.0938 14.9962C11.3467 14.9721 11.581 14.8527 11.7491 14.6621C11.9171 14.4715 12.0064 14.2241 11.9986 13.9701C11.9908 13.7161 11.8867 13.4746 11.7073 13.2946L10.4152 12.0015L11.7073 10.7083L11.7903 10.6143C11.9458 10.4133 12.0189 10.1606 11.9948 9.90769C11.9707 9.65474 11.8512 9.42044 11.6606 9.25239C11.47 9.08433 11.2226 8.99512 10.9686 9.00288C10.7146 9.01064 10.4731 9.11477 10.2932 9.29414L9 10.5863L7.70684 9.29414L7.61283 9.21113L7.51082 9.14113ZM11.0002 0C11.5307 0 12.0395 0.21074 12.4146 0.585858C12.7898 0.960977 13.0005 1.46975 13.0005 2.00025C13.0002 2.25516 12.9026 2.50034 12.7276 2.6857C12.5526 2.87106 12.3135 2.9826 12.059 2.99754C11.8045 3.01248 11.5539 2.92969 11.3585 2.76608C11.163 2.60247 11.0374 2.37039 11.0072 2.11726L11.0002 2.00025H6.99975L6.99275 2.11726C6.96265 2.37039 6.83702 2.60247 6.64154 2.76608C6.44607 2.92969 6.19549 3.01248 5.94102 2.99754C5.68655 2.9826 5.44738 2.87106 5.27239 2.6857C5.0974 2.50034 4.99979 2.25516 4.99951 2.00025C4.99935 1.49561 5.18994 1.00956 5.53307 0.639531C5.8762 0.269504 6.34652 0.0428486 6.84974 0.00500073L6.99975 0H11.0002Z" fill="#D44137"/>
</svg>
