<svg width="20" height="22" viewBox="0 0 20 22" fill="none" xmlns="http://www.w3.org/2000/svg">
<path fill-rule="evenodd" clip-rule="evenodd" d="M7.70063 7.62149C7.37551 7.67131 7.15691 7.94589 7.2135 8.23553L7.78052 11.176L5.1063 14.3713L3.42298 16.7162L1.19594 20.2035C1.03283 20.4595 1.13269 20.7851 1.41898 20.9299C1.70527 21.0759 2.06923 20.9867 2.23234 20.7306L4.44385 17.2665L5.95517 15.1637L10.3959 14.552C10.7211 14.5068 10.9441 14.2346 10.8942 13.9449C10.8442 13.6553 10.5391 13.4549 10.214 13.5L6.9483 13.9507L8.86464 11.6591L13.2144 7.76631C13.2688 7.72133 13.3128 7.66405 13.343 7.59879C13.3732 7.53353 13.3888 7.46197 13.3887 7.3895C13.3886 7.31702 13.3727 7.24552 13.3424 7.18035C13.312 7.11518 13.2679 7.05805 13.2133 7.01324C13.0936 6.91294 12.9447 6.85847 12.7912 6.85889C12.6378 6.85931 12.4891 6.9146 12.37 7.01556L8.80472 10.2062L8.38971 8.05595C8.33423 7.76631 8.02575 7.57167 7.70063 7.62149Z" fill="#5AAF76" stroke="#5AAF76"/>
<path fill-rule="evenodd" clip-rule="evenodd" d="M17.1112 8.82866C16.482 11.3821 15.1549 14.0121 13.6025 15.6329C11.4798 17.8492 9.41921 18.7205 7.66931 18.7911C5.92607 18.8607 4.37813 18.1377 3.24408 16.9513C2.73365 16.4161 2.4052 15.6422 2.2676 14.6806C2.1289 13.7224 2.18438 12.6183 2.39854 11.4748C3.21523 7.10124 7.11449 3.62324 11.9281 2.3998C14.063 1.85759 15.692 1.9468 16.5819 2.87828C17.079 3.39964 17.3853 4.21758 17.4729 5.27651C17.5584 6.32848 17.4252 7.5554 17.1112 8.82866ZM18.6603 5.22553C18.5648 4.05307 18.2164 2.96981 17.4796 2.19705C16.0681 0.719881 13.7401 0.822994 11.5763 1.37331C6.39434 2.6906 2.12446 6.44782 1.22343 11.2744C0.99596 12.4909 0.928272 13.7016 1.08584 14.7906C1.24119 15.875 1.62734 16.8795 2.3475 17.6337C3.0508 18.376 3.89463 18.957 4.82509 19.3396C5.75556 19.7222 6.75221 19.8981 7.75142 19.8559C9.92076 19.7701 12.2565 18.6961 14.5147 16.3385C16.2213 14.5566 17.6161 11.7552 18.2752 9.08239C18.6059 7.74193 18.7579 6.40727 18.6603 5.22553Z" fill="#5AAF76" stroke="#5AAF76"/>
</svg>
