<svg width="25" height="25" viewBox="0 0 25 25" fill="none" xmlns="http://www.w3.org/2000/svg">
<path d="M0 12.5C0 14.9723 0.733112 17.389 2.10663 19.4446C3.48015 21.5002 5.43238 23.1024 7.71645 24.0485C10.0005 24.9946 12.5139 25.2421 14.9386 24.7598C17.3634 24.2775 19.5907 23.087 21.3388 21.3388C23.087 19.5907 24.2775 17.3634 24.7598 14.9386C25.2421 12.5139 24.9946 10.0005 24.0485 7.71646C23.1024 5.43238 21.5002 3.48015 19.4446 2.10663C17.389 0.733112 14.9723 0 12.5 0C9.18587 0.00349998 6.00848 1.32158 3.66503 3.66503C1.32158 6.00848 0.00349978 9.18587 0 12.5ZM23.0769 12.5C23.0769 14.5919 22.4566 16.6369 21.2944 18.3762C20.1322 20.1156 18.4803 21.4713 16.5476 22.2718C14.6149 23.0723 12.4883 23.2818 10.4365 22.8737C8.38482 22.4656 6.50019 21.4582 5.02099 19.979C3.54178 18.4998 2.53442 16.6152 2.12631 14.5635C1.7182 12.5117 1.92765 10.3851 2.7282 8.45238C3.52874 6.5197 4.88441 4.86782 6.62377 3.70561C8.36314 2.5434 10.4081 1.92308 12.5 1.92308C15.3042 1.92626 17.9926 3.04163 19.9755 5.0245C21.9584 7.00737 23.0737 9.6958 23.0769 12.5ZM12.5 11.0577C12.7853 11.0577 13.0641 11.1423 13.3013 11.3008C13.5385 11.4592 13.7233 11.6845 13.8325 11.9481C13.9417 12.2116 13.9702 12.5016 13.9146 12.7814C13.8589 13.0612 13.7216 13.3182 13.5199 13.5199C13.3182 13.7216 13.0612 13.8589 12.7814 13.9146C12.5016 13.9702 12.2116 13.9417 11.9481 13.8325C11.6845 13.7234 11.4592 13.5385 11.3008 13.3013C11.1423 13.0641 11.0577 12.7853 11.0577 12.5C11.0577 12.1175 11.2096 11.7506 11.4801 11.4801C11.7506 11.2096 12.1175 11.0577 12.5 11.0577ZM12.5 5.76923C12.7853 5.76923 13.0641 5.85382 13.3013 6.0123C13.5385 6.17079 13.7233 6.39604 13.8325 6.65959C13.9417 6.92314 13.9702 7.21314 13.9146 7.49292C13.8589 7.7727 13.7216 8.02969 13.5199 8.2314C13.3182 8.43311 13.0612 8.57048 12.7814 8.62613C12.5016 8.68178 12.2116 8.65322 11.9481 8.54405C11.6845 8.43489 11.4592 8.25002 11.3008 8.01284C11.1423 7.77565 11.0577 7.4968 11.0577 7.21154C11.0577 6.82901 11.2096 6.46216 11.4801 6.19167C11.7506 5.92119 12.1175 5.76923 12.5 5.76923ZM12.5 16.3462C12.7853 16.3462 13.0641 16.4307 13.3013 16.5892C13.5385 16.7477 13.7233 16.973 13.8325 17.2365C13.9417 17.5001 13.9702 17.7901 13.9146 18.0698C13.8589 18.3496 13.7216 18.6066 13.5199 18.8083C13.3182 19.01 13.0612 19.1474 12.7814 19.2031C12.5016 19.2587 12.2116 19.2301 11.9481 19.121C11.6845 19.0118 11.4592 18.8269 11.3008 18.5898C11.1423 18.3526 11.0577 18.0737 11.0577 17.7885C11.0577 17.4059 11.2096 17.0391 11.4801 16.7686C11.7506 16.4981 12.1175 16.3462 12.5 16.3462Z" fill="#5AAF76"/>
</svg>
