<svg width="25" height="50" viewBox="0 0 25 50" fill="none" xmlns="http://www.w3.org/2000/svg">
<path d="M20 27.5V7.5C20 5.51088 19.2098 3.60322 17.8033 2.1967C16.3968 0.790177 14.4891 0 12.5 0C10.5109 0 8.60322 0.790177 7.1967 2.1967C5.79018 3.60322 5 5.51088 5 7.5V27.5C2.90118 29.0741 1.35083 31.2687 0.568581 33.7729C-0.213671 36.2771 -0.188174 38.9639 0.641459 41.4528C1.47109 43.9417 3.0628 46.1065 5.19112 47.6405C7.31944 49.1745 9.87647 50 12.5 50C15.1235 50 17.6806 49.1745 19.8089 47.6405C21.9372 46.1065 23.5289 43.9417 24.3585 41.4528C25.1882 38.9639 25.2137 36.2771 24.4314 33.7729C23.6492 31.2687 22.0988 29.0741 20 27.5ZM12.5 5C13.163 5 13.7989 5.26339 14.2678 5.73223C14.7366 6.20107 15 6.83696 15 7.5V15H10V7.5C10 6.83696 10.2634 6.20107 10.7322 5.73223C11.2011 5.26339 11.837 5 12.5 5Z" fill="#D44137"/>
</svg>
