<svg width="54" height="25" viewBox="0 0 54 25" fill="none" xmlns="http://www.w3.org/2000/svg">
<path d="M41.1144 25H12.5131C5.60228 25 0 19.4036 0 12.5C0 5.59643 5.60228 0 12.5131 0H41.1144C48.0252 0 53.6275 5.59643 53.6275 12.5C53.6275 19.4036 48.0252 25 41.1144 25Z" fill="#BAA898"/>
<path d="M34.623 12.7578C34.623 15.4648 32.9941 17.1172 30.8027 17.1172C28.5879 17.1172 26.9707 15.4648 26.9707 12.7578C26.9707 10.0391 28.5879 8.39844 30.8027 8.39844C32.9941 8.39844 34.623 10.0391 34.623 12.7578ZM33.3457 12.7578C33.3457 10.6953 32.2559 9.58203 30.8027 9.58203C29.3379 9.58203 28.248 10.6953 28.248 12.7578C28.248 14.8203 29.3379 15.9336 30.8027 15.9336C32.2559 15.9336 33.3457 14.8203 33.3457 12.7578ZM36.0762 17V8.51562H41.3379V9.62891H37.3652V12.1953H40.9629V13.2969H37.3652V17H36.0762ZM42.7793 17V8.51562H48.041V9.62891H44.0684V12.1953H47.666V13.2969H44.0684V17H42.7793Z" fill="white"/>
<path d="M23.4936 12.4998C23.4936 6.58251 18.6916 1.83789 12.7681 1.83789C6.8446 1.83789 2 6.58251 2 12.4998C2 18.4172 6.8446 23.1618 12.7681 23.1618C18.6916 23.1618 23.4936 18.4172 23.4936 12.4998Z" fill="white"/>
</svg>
