<svg width="54" height="25" viewBox="0 0 54 25" fill="none" xmlns="http://www.w3.org/2000/svg">
<path d="M41.1144 25H12.5131C5.60228 25 0 19.4036 0 12.5C0 5.59643 5.60228 0 12.5131 0H41.1144C48.0252 0 53.6275 5.59643 53.6275 12.5C53.6275 19.4036 48.0252 25 41.1144 25Z" fill="#72BA9B"/>
<path d="M51.8398 12.4998C51.8398 6.58251 47.0378 1.83789 41.1143 1.83789C35.1908 1.83789 30.3462 6.58251 30.3462 12.4998C30.3462 18.4172 35.1908 23.1618 41.1143 23.1618C47.0378 23.1618 51.8398 18.4172 51.8398 12.4998Z" fill="white"/>
<path d="M17.5371 12.7578C17.5371 15.4648 15.9082 17.1172 13.7168 17.1172C11.502 17.1172 9.88477 15.4648 9.88477 12.7578C9.88477 10.0391 11.502 8.39844 13.7168 8.39844C15.9082 8.39844 17.5371 10.0391 17.5371 12.7578ZM16.2598 12.7578C16.2598 10.6953 15.1699 9.58203 13.7168 9.58203C12.252 9.58203 11.1621 10.6953 11.1621 12.7578C11.1621 14.8203 12.252 15.9336 13.7168 15.9336C15.1699 15.9336 16.2598 14.8203 16.2598 12.7578ZM25.834 8.51562V17H24.6504L20.3496 10.8008H20.2793V17H18.9902V8.51562H20.1855L24.4863 14.7266H24.5684V8.51562H25.834Z" fill="white"/>
</svg>
