<svg width="36" height="50" viewBox="0 0 36 50" fill="none" xmlns="http://www.w3.org/2000/svg">
<path d="M18 0L15.75 2.55164C15.75 2.55164 11.91 6.95626 8.04 12.6671C4.17 18.3779 0 25.2126 0 31.774C0 36.6078 1.89642 41.2437 5.27208 44.6617C8.64773 48.0798 13.2261 50 18 50C22.7739 50 27.3523 48.0798 30.7279 44.6617C34.1036 41.2437 36 36.6078 36 31.774C36 25.2126 31.83 18.3779 27.96 12.6671C25.573 9.15623 22.9992 5.77943 20.25 2.55164L18 0ZM18 9.5079C19.32 11.0875 20.52 12.3937 23.04 16.0996C26.67 21.4459 30 28.2503 30 31.774C30 38.5176 24.66 43.9247 18 43.9247C11.34 43.9247 6 38.5176 6 31.774C6 28.2503 9.33 21.4459 12.96 16.0996C15.48 12.3937 16.68 11.0875 18 9.5079Z" fill="#C4ECF9"/>
</svg>
